<?xml version="1.0" standalone="no"?>
<!DOCTYPE svg PUBLIC "-//W3C//DTD SVG 20010904//EN"
 "http://www.w3.org/TR/2001/REC-SVG-20010904/DTD/svg10.dtd">
<svg version="1.0" xmlns="http://www.w3.org/2000/svg"
 width="700.000000pt" height="700.000000pt" viewBox="0 0 700.000000 700.000000"
 preserveAspectRatio="xMidYMid meet">
<metadata>
Created by potrace 1.11, written by Peter Selinger 2001-2013
</metadata>
<g transform="translate(0.000000,700.000000) scale(0.100000,-0.100000)"
fill="#000000" stroke="none">
<path d="M1848 6953 c-28 -27 -65 -61 -83 -78 -17 -16 -78 -73 -135 -125 -57
-52 -119 -110 -139 -129 -66 -61 -234 -216 -251 -231 -9 -8 -71 -64 -136 -125
-65 -60 -150 -139 -189 -175 -39 -36 -118 -109 -175 -162 -58 -53 -118 -109
-135 -124 -16 -15 -85 -78 -152 -142 l-123 -114 0 -2662 c0 -2911 -4 -2724 56
-2796 14 -17 47 -43 73 -58 l46 -27 2593 -3 2593 -2 55 26 c62 29 117 95 130
154 5 19 9 733 10 1585 1 853 2 1552 3 1556 1 3 114 117 252 255 321 319 386
393 438 497 54 110 72 181 76 303 5 133 -29 278 -85 364 -8 14 -22 37 -29 51
-22 45 -130 157 -184 193 -137 89 -234 123 -379 133 l-94 6 0 841 c0 822 -1
842 -21 886 -11 25 -37 62 -58 82 -76 73 81 68 -2017 68 l-1889 0 -51 -47z"/>
</g>
</svg>
